<svg width="115" height="80" viewBox="0 0 115 80" fill="none" xmlns="http://www.w3.org/2000/svg">
<g clip-path="url(#clip0_37_39)">
<path d="M81.9422 40.5581C68.3391 33.4179 55.3141 26.8536 42 20V61C56.0105 53.5192 70.7779 46.6683 82 40.5581H81.9422Z" fill="#CD201F"/>
<path d="M47.392 79.896C25.5993 79.4966 18.156 79.1374 13.5809 78.1992C10.4856 77.5759 7.79571 76.1918 5.82343 74.1844C4.29911 72.6651 3.08687 70.347 2.14638 67.1309C1.33963 64.4515 1.02542 62.2222 0.577469 56.7768C-0.108264 44.4871 -0.271736 34.4394 0.577469 23.2125C1.27806 17.0128 1.61774 9.65289 6.27139 5.3591C8.46871 3.34956 11.0248 2.05635 13.8951 1.52174C18.3789 0.674396 37.4818 0.00454712 57.2577 0.00454712C76.989 0.00454712 96.1343 0.674396 100.622 1.52174C104.208 2.19159 107.571 4.19902 109.545 6.78754C113.791 13.4353 113.866 21.7017 114.297 28.1677C114.475 31.2486 114.475 48.7428 114.297 51.8237C113.626 62.0426 113.087 65.6581 111.562 69.4067C110.62 71.7733 109.815 73.0222 108.422 74.4062C106.238 76.5361 103.453 77.9529 100.44 78.4676C81.581 79.8791 65.5671 80.1855 47.392 79.896ZM76.2714 38.8346C65.7794 33.2539 55.7333 28.079 45.4643 22.7223V54.7693C56.2705 48.9224 67.6626 43.5658 76.316 38.7902L76.2714 38.8346Z" fill="#CD201F"/>
<path d="M57 57.3333C66.5729 57.3333 74.3333 49.5729 74.3333 40C74.3333 30.4271 66.5729 22.6667 57 22.6667C47.427 22.6667 39.6666 30.4271 39.6666 40C39.6666 49.5729 47.427 57.3333 57 57.3333Z" fill="white"/>
<path fill-rule="evenodd" clip-rule="evenodd" d="M64.5593 29.6667H65.0583V26.3787H64.5546L63.6886 26.9937V27.495L64.5476 26.8843H64.5593V29.6667ZM68.581 32.6757V32.6803H69.064V32.6737C69.064 32.3317 69.335 32.072 69.695 32.072C70.037 32.072 70.3013 32.3043 70.3013 32.596C70.3013 32.8537 70.1963 33.0267 69.7953 33.4437L68.6083 34.6537V35H70.8573V34.5693H69.2963V34.558L70.119 33.7307C70.5996 33.2387 70.8046 32.954 70.8046 32.5707C70.8046 32.049 70.338 31.6507 69.7113 31.6507C69.057 31.6507 68.581 32.0833 68.581 32.6757ZM70.7623 39.8453H71.1723C71.6053 39.8453 71.874 40.064 71.874 40.4197C71.874 40.741 71.5873 40.9687 71.186 40.9687C70.7713 40.9687 70.5116 40.752 70.4793 40.4377H69.99C70.022 41.0053 70.4776 41.395 71.1863 41.395C71.8723 41.395 72.394 41.0007 72.394 40.4263C72.394 39.9663 72.075 39.663 71.5806 39.629V39.6197C71.9883 39.547 72.2573 39.253 72.2573 38.843C72.2573 38.337 71.804 37.9837 71.1816 37.9837C70.53 37.9837 70.095 38.355 70.056 38.9317H70.537C70.5666 38.6083 70.8036 38.403 71.159 38.403C71.5486 38.403 71.7583 38.6057 71.7583 38.911C71.7583 39.221 71.5143 39.4443 71.159 39.4443H70.7623V39.8453ZM69.908 49V48.3507H68.2626V47.904C68.5453 47.373 68.919 46.783 69.6593 45.712H70.3976V47.922H70.849V48.3507H70.3976V49H69.908ZM68.739 47.9177V47.929H69.9123V46.106H69.9033C69.3333 46.9287 69.001 47.4413 68.739 47.9177ZM64.2383 53.7283C64.947 53.7283 65.4436 53.261 65.4436 52.5867C65.4436 51.9487 64.9903 51.486 64.3593 51.486C64.038 51.486 63.769 51.6113 63.6253 51.8187H63.614L63.7053 50.8093H65.2523V50.3787H63.295L63.1216 52.238H63.589C63.7166 52.0213 63.9626 51.8913 64.2476 51.8913C64.6576 51.8913 64.9446 52.188 64.9446 52.6003C64.9446 53.0127 64.658 53.302 64.243 53.302C63.8763 53.302 63.596 53.0787 63.5596 52.753H63.0716C63.1016 53.327 63.582 53.7283 64.2383 53.7283ZM57.2623 56.0637C56.777 56.0637 56.3873 55.8153 56.173 55.371C56.0386 55.109 55.9703 54.7853 55.9703 54.4003C55.9703 53.2997 56.4626 52.648 57.285 52.648C57.8663 52.648 58.3173 52.9967 58.4176 53.5207H57.9073C57.8273 53.252 57.5813 53.0763 57.2806 53.0763C56.7633 53.0763 56.4626 53.546 56.4603 54.373H56.4693C56.6126 54.054 56.9616 53.8397 57.3716 53.8397C57.9983 53.8397 58.4633 54.3023 58.4633 54.9267C58.4633 55.5853 57.9596 56.0637 57.2623 56.0637ZM57.2576 55.633C57.3489 55.634 57.4394 55.6168 57.5239 55.5826C57.6085 55.5484 57.6854 55.4977 57.7503 55.4335C57.8151 55.3694 57.8666 55.293 57.9018 55.2088C57.9369 55.1246 57.955 55.0342 57.955 54.943C57.955 54.544 57.6656 54.257 57.2623 54.257C56.8613 54.257 56.5626 54.5437 56.5626 54.9337C56.5626 55.3233 56.866 55.633 57.2576 55.633ZM49.5106 53.6667H50.0463L51.475 50.8207V50.3787H49.2373V50.8093H50.9713V50.8207L49.5106 53.6667ZM44.871 49.0617C44.1373 49.0617 43.6266 48.6673 43.6266 48.1113C43.6266 47.692 43.923 47.357 44.3583 47.266V47.2547C43.9936 47.1543 43.759 46.8693 43.759 46.5163C43.759 46.0173 44.226 45.6503 44.871 45.6503C45.518 45.6503 45.9806 46.015 45.9806 46.5187C45.9806 46.8673 45.7483 47.1497 45.3836 47.2547V47.266C45.821 47.357 46.115 47.6943 46.115 48.1113C46.115 48.6697 45.6 49.0613 44.871 49.0613V49.0617ZM44.871 48.6517C45.2903 48.6517 45.5863 48.4097 45.5863 48.075C45.5863 47.7353 45.2903 47.4937 44.871 47.4937C44.4516 47.4937 44.153 47.7377 44.153 48.075C44.153 48.4097 44.4516 48.6517 44.871 48.6517ZM44.871 47.0837C45.2243 47.0837 45.477 46.8693 45.477 46.571C45.477 46.2703 45.2263 46.056 44.871 46.056C44.513 46.056 44.2646 46.2703 44.2646 46.571C44.2646 46.8693 44.513 47.0837 44.871 47.0837ZM42.1266 41.395C41.541 41.395 41.0876 41.044 40.99 40.522H41.5023C41.58 40.791 41.8306 40.971 42.1336 40.971C42.6463 40.971 42.947 40.497 42.947 39.6677H42.938C42.8056 39.991 42.4593 40.2053 42.0356 40.2053C41.4113 40.2053 40.944 39.743 40.944 39.1187C40.944 38.46 41.45 37.9813 42.145 37.9813C42.6326 37.9813 43.0246 38.2297 43.2363 38.672C43.371 38.934 43.4393 39.2573 43.4393 39.6427C43.4393 40.743 42.9516 41.395 42.1266 41.395ZM42.145 39.7883C42.5483 39.7883 42.849 39.499 42.849 39.1117C42.8499 39.02 42.8324 38.929 42.7977 38.8441C42.7629 38.7592 42.7115 38.6822 42.6466 38.6174C42.5816 38.5527 42.5044 38.5016 42.4194 38.4671C42.3344 38.4326 42.2433 38.4155 42.1516 38.4167C41.76 38.4167 41.4523 38.72 41.4523 39.1027C41.4523 39.4967 41.7463 39.7883 42.145 39.7883ZM43.8106 35H44.31V31.712H43.8063L42.94 32.3267V32.828L43.799 32.2173H43.8103L43.8106 35ZM45.8996 35.0617C45.1113 35.0617 44.6443 34.4007 44.6443 33.3527C44.6443 32.3113 45.116 31.6503 45.8996 31.6503C46.686 31.6503 47.1506 32.309 47.1506 33.3503C47.1506 34.3983 46.688 35.0617 45.8996 35.0617ZM45.8996 34.633C46.369 34.633 46.6356 34.1477 46.6356 33.3527C46.6356 32.5687 46.3646 32.0787 45.8996 32.0787C45.435 32.0787 45.1613 32.571 45.1613 33.3527C45.1613 34.1457 45.4303 34.633 45.8996 34.633ZM48.865 29.6667H49.364V26.3787H48.86L47.994 26.9937V27.495L48.853 26.8843H48.8646L48.865 29.6667ZM50.587 29.6667H51.086V26.3787H50.5826L49.7163 26.9937V27.495L50.5756 26.8843H50.587V29.6667ZM56.2456 27.3333H56.7446V24.0453H56.241L55.375 24.66V25.1613L56.234 24.5507H56.2456V27.3333ZM57.1086 25.009V25.0137H57.5916V25.007C57.5916 24.665 57.8626 24.4053 58.2226 24.4053C58.5646 24.4053 58.829 24.6377 58.829 24.9293C58.829 25.187 58.724 25.36 58.323 25.777L57.136 26.987V27.3333H59.385V26.9027H57.824V26.8913L58.6466 26.064C59.1273 25.572 59.3326 25.2873 59.3326 24.904C59.3326 24.3823 58.8653 23.984 58.2386 23.984C57.5846 23.984 57.1086 24.4167 57.1086 25.009Z" fill="black"/>
<path fill-rule="evenodd" clip-rule="evenodd" d="M57.0827 40.3117L48.0643 35.0317C48.0264 35.0094 47.9988 34.9731 47.9876 34.9305C47.9764 34.888 47.9824 34.8428 48.0043 34.8047L48.005 34.8037C48.0159 34.7848 48.0305 34.7682 48.0479 34.7549C48.0652 34.7416 48.0851 34.7319 48.1062 34.7264C48.1273 34.7208 48.1493 34.7194 48.171 34.7224C48.1927 34.7254 48.2135 34.7326 48.2323 34.7437L57.25 40.0233C57.2879 40.0456 57.3154 40.0819 57.3266 40.1243C57.3378 40.1668 57.3319 40.2119 57.31 40.25L57.3093 40.2513C57.2984 40.2702 57.2839 40.2868 57.2665 40.3C57.2492 40.3132 57.2294 40.3229 57.2083 40.3285C57.1872 40.3341 57.1652 40.3354 57.1436 40.3325C57.122 40.3295 57.1012 40.3224 57.0823 40.3113L57.0827 40.3117Z" fill="black"/>
<path fill-rule="evenodd" clip-rule="evenodd" d="M57.0823 40.023L70.5716 32.3763C70.6099 32.3546 70.6551 32.3488 70.6976 32.3603C70.7401 32.3718 70.7763 32.3996 70.7983 32.4377L70.799 32.439C70.8099 32.4579 70.817 32.4788 70.8198 32.5005C70.8226 32.5221 70.8211 32.5441 70.8154 32.5652C70.8097 32.5863 70.7998 32.606 70.7864 32.6232C70.773 32.6405 70.7563 32.6549 70.7373 32.6657L57.248 40.3123C57.2097 40.3341 57.1644 40.3398 57.1219 40.3282C57.0795 40.3167 57.0433 40.2888 57.0213 40.2507L57.0206 40.2493C57.0097 40.2304 57.0026 40.2095 56.9998 40.1879C56.997 40.1662 56.9985 40.1442 57.0042 40.1231C57.0099 40.1021 57.0198 40.0823 57.0332 40.0651C57.0466 40.0478 57.0633 40.0338 57.0823 40.023Z" fill="black"/>
<path d="M57.1667 41C57.6269 41 58 40.6269 58 40.1667C58 39.7064 57.6269 39.3333 57.1667 39.3333C56.7065 39.3333 56.3334 39.7064 56.3334 40.1667C56.3334 40.6269 56.7065 41 57.1667 41Z" fill="black"/>
<path d="M57.1666 40.6667C57.4428 40.6667 57.6666 40.4428 57.6666 40.1667C57.6666 39.8905 57.4428 39.6667 57.1666 39.6667C56.8905 39.6667 56.6666 39.8905 56.6666 40.1667C56.6666 40.4428 56.8905 40.6667 57.1666 40.6667Z" fill="#FFCC51"/>
<path d="M57.3333 37.5C57.3333 37.408 57.2587 37.3333 57.1667 37.3333C57.0746 37.3333 57 37.408 57 37.5V55.5C57 55.5921 57.0746 55.6667 57.1667 55.6667C57.2587 55.6667 57.3333 55.5921 57.3333 55.5V37.5Z" fill="#FFCC51"/>
</g>
<defs>
<clipPath id="clip0_37_39">
<rect width="114.43" height="80" fill="white"/>
</clipPath>
</defs>
</svg>
