<svg width="64" height="43" viewBox="0 0 64 43" fill="none" xmlns="http://www.w3.org/2000/svg">
<path d="M44.9227 21.4201C37.9268 17.9896 31.2282 14.8358 24.381 11.543V31.2413C31.5863 27.6471 39.181 24.3557 44.9524 21.4201H44.9227Z" fill="black"/>
<path d="M26.5059 42.8841C14.3174 42.6744 10.1544 42.4858 7.59558 41.9932C5.86437 41.6659 4.35995 40.9392 3.25687 39.8852C2.40433 39.0874 1.72633 37.8703 1.20032 36.1816C0.74911 34.7748 0.573376 33.6043 0.322838 30.7451C-0.0606879 24.2923 -0.152117 19.0166 0.322838 13.1218C0.714676 9.86654 0.904657 6.00216 3.50741 3.74765C4.73635 2.69252 6.16597 2.0135 7.77131 1.7328C10.2791 1.28789 20.9632 0.93618 32.0237 0.93618C43.0593 0.93618 53.7671 1.28789 56.2772 1.7328C58.2827 2.08451 60.1636 3.13854 61.2678 4.49767C63.6426 7.98816 63.6842 12.3285 63.9252 15.7236C64.0249 17.3412 64.0249 26.5268 63.9252 28.1444C63.55 33.51 63.2484 35.4083 62.3958 37.3766C61.8686 38.6192 61.4186 39.2749 60.6397 40.0017C59.4181 41.12 57.8607 41.8639 56.1751 42.1341C45.6276 42.8753 36.6711 43.0361 26.5059 42.8841ZM42.6579 21.3243C36.7899 18.3942 31.1711 15.677 25.4278 12.8644V29.6911C31.4716 26.6211 37.8431 23.8085 42.6829 21.301L42.6579 21.3243Z" fill="black"/>
<path d="M31.8797 31.0373C37.2338 31.0373 41.5741 26.9626 41.5741 21.9363C41.5741 16.9099 37.2338 12.8352 31.8797 12.8352C26.5256 12.8352 22.1853 16.9099 22.1853 21.9363C22.1853 26.9626 26.5256 31.0373 31.8797 31.0373Z" fill="white"/>
<path fill-rule="evenodd" clip-rule="evenodd" d="M36.1075 16.5106H36.3866V14.7842H36.1049L35.6205 15.1071V15.3704L36.1009 15.0497H36.1075V16.5106ZM38.3568 18.0905V18.093H38.6269V18.0895C38.6269 17.9099 38.7785 17.7736 38.9798 17.7736C39.1711 17.7736 39.3189 17.8956 39.3189 18.0487C39.3189 18.184 39.2602 18.2748 39.0359 18.4938L38.372 19.1291V19.311H39.6299V19.0848H38.7568V19.0789L39.217 18.6445C39.4858 18.3861 39.6004 18.2367 39.6004 18.0354C39.6004 17.7615 39.3394 17.5523 38.9889 17.5523C38.623 17.5523 38.3568 17.7795 38.3568 18.0905ZM39.5768 21.8551H39.8061C40.0482 21.8551 40.1985 21.9699 40.1985 22.1566C40.1985 22.3253 40.0382 22.4449 39.8137 22.4449C39.5818 22.4449 39.4366 22.3311 39.4185 22.1661H39.1448C39.1627 22.4641 39.4175 22.6687 39.8139 22.6687C40.1976 22.6687 40.4893 22.4617 40.4893 22.1601C40.4893 21.9186 40.3109 21.7593 40.0344 21.7415V21.7366C40.2625 21.6984 40.4129 21.544 40.4129 21.3288C40.4129 21.0631 40.1594 20.8776 39.8113 20.8776C39.4468 20.8776 39.2035 21.0725 39.1817 21.3753H39.4507C39.4673 21.2056 39.5999 21.0977 39.7986 21.0977C40.0166 21.0977 40.1338 21.2042 40.1338 21.3645C40.1338 21.5272 39.9973 21.6445 39.7986 21.6445H39.5768V21.8551ZM39.0989 26.6618V26.3209H38.1787V26.0863C38.3368 25.8075 38.5458 25.4978 38.9599 24.9354H39.3728V26.0958H39.6252V26.3209H39.3728V26.6618H39.0989ZM38.4451 26.0935V26.0995H39.1014V25.1423H39.0963C38.7775 25.5742 38.5917 25.8434 38.4451 26.0935ZM35.9279 29.1445C36.3243 29.1445 36.6021 28.8991 36.6021 28.545C36.6021 28.2101 36.3485 27.9671 35.9956 27.9671C35.8159 27.9671 35.6654 28.0329 35.5851 28.1418H35.5787L35.6298 27.6118H36.4951V27.3857H35.4003L35.3034 28.362H35.5648C35.6362 28.2482 35.7738 28.1799 35.9332 28.1799C36.1625 28.1799 36.323 28.3357 36.323 28.5522C36.323 28.7687 36.1626 28.9206 35.9305 28.9206C35.7255 28.9206 35.5687 28.8034 35.5484 28.6324H35.2754C35.2922 28.9338 35.5609 29.1445 35.9279 29.1445ZM32.0263 30.3707C31.7549 30.3707 31.5369 30.2403 31.417 30.007C31.3419 29.8694 31.3037 29.6995 31.3037 29.4973C31.3037 28.9194 31.5791 28.5772 32.039 28.5772C32.3641 28.5772 32.6164 28.7603 32.6725 29.0354H32.387C32.3423 28.8944 32.2047 28.8021 32.0366 28.8021C31.7472 28.8021 31.5791 29.0488 31.5778 29.483H31.5828C31.663 29.3155 31.8581 29.2029 32.0875 29.2029C32.4379 29.2029 32.698 29.4459 32.698 29.7737C32.698 30.1195 32.4163 30.3707 32.0263 30.3707ZM32.0237 30.1446C32.0747 30.1451 32.1253 30.1361 32.1726 30.1181C32.2199 30.1001 32.263 30.0735 32.2992 30.0398C32.3355 30.0061 32.3643 29.966 32.3839 29.9218C32.4036 29.8776 32.4137 29.8302 32.4137 29.7823C32.4137 29.5728 32.2519 29.4221 32.0263 29.4221C31.802 29.4221 31.635 29.5726 31.635 29.7774C31.635 29.982 31.8046 30.1446 32.0237 30.1446ZM27.6909 29.1121H27.9904L28.7895 27.6178V27.3857H27.538V27.6118H28.5078V27.6178L27.6909 29.1121ZM25.0959 26.6942C24.6856 26.6942 24.4 26.4871 24.4 26.1952C24.4 25.975 24.5657 25.7991 24.8092 25.7514V25.7454C24.6052 25.6927 24.474 25.5431 24.474 25.3577C24.474 25.0957 24.7352 24.903 25.0959 24.903C25.4578 24.903 25.7165 25.0945 25.7165 25.359C25.7165 25.542 25.5866 25.6903 25.3827 25.7454V25.7514C25.6272 25.7991 25.7917 25.9763 25.7917 26.1952C25.7917 26.4884 25.5036 26.694 25.0959 26.694V26.6942ZM25.0959 26.4789C25.3305 26.4789 25.496 26.3519 25.496 26.1761C25.496 25.9978 25.3305 25.8709 25.0959 25.8709C24.8614 25.8709 24.6943 25.999 24.6943 26.1761C24.6943 26.3519 24.8614 26.4789 25.0959 26.4789ZM25.0959 25.6556C25.2935 25.6556 25.4349 25.5431 25.4349 25.3864C25.4349 25.2286 25.2947 25.116 25.0959 25.116C24.8957 25.116 24.7568 25.2286 24.7568 25.3864C24.7568 25.5431 24.8957 25.6556 25.0959 25.6556ZM23.561 22.6687C23.2335 22.6687 22.9799 22.4844 22.9253 22.2103H23.2118C23.2553 22.3516 23.3955 22.4461 23.5649 22.4461C23.8517 22.4461 24.0198 22.1972 24.0198 21.7618H24.0148C23.9408 21.9315 23.7471 22.0441 23.5101 22.0441C23.161 22.0441 22.8996 21.8013 22.8996 21.4735C22.8996 21.1277 23.1826 20.8763 23.5713 20.8763C23.844 20.8763 24.0633 21.0067 24.1817 21.239C24.257 21.3765 24.2952 21.5463 24.2952 21.7486C24.2952 22.3264 24.0225 22.6687 23.561 22.6687ZM23.5713 21.8251C23.7969 21.8251 23.965 21.6732 23.965 21.4698C23.9655 21.4217 23.9558 21.3739 23.9363 21.3293C23.9169 21.2848 23.8882 21.2443 23.8518 21.2103C23.8155 21.1763 23.7723 21.1495 23.7248 21.1314C23.6772 21.1133 23.6263 21.1043 23.575 21.1049C23.356 21.1049 23.1839 21.2642 23.1839 21.4651C23.1839 21.672 23.3483 21.8251 23.5713 21.8251ZM24.5029 19.311H24.7822V17.5846H24.5005L24.0159 17.9073V18.1705L24.4964 17.8499H24.5027L24.5029 19.311ZM25.6712 19.3433C25.2303 19.3433 24.9691 18.9963 24.9691 18.446C24.9691 17.8992 25.2329 17.5522 25.6712 17.5522C26.111 17.5522 26.3709 17.898 26.3709 18.4448C26.3709 18.995 26.1122 19.3433 25.6712 19.3433ZM25.6712 19.1183C25.9337 19.1183 26.0829 18.8634 26.0829 18.446C26.0829 18.0344 25.9313 17.7771 25.6712 17.7771C25.4114 17.7771 25.2583 18.0356 25.2583 18.446C25.2583 18.8624 25.4088 19.1183 25.6712 19.1183ZM27.3297 16.5106H27.6088V14.7842H27.3269L26.8426 15.1071V15.3704L27.323 15.0497H27.3295L27.3297 16.5106ZM28.2928 16.5106H28.5719V14.7842H28.2904L27.8059 15.1071V15.3704L28.2865 15.0497H28.2928V16.5106ZM31.4577 15.2855H31.7368V13.5591H31.4551L30.9707 13.8818V14.145L31.4512 13.8244H31.4577V15.2855ZM31.9404 14.0651V14.0675H32.2105V14.064C32.2105 13.8844 32.3621 13.7481 32.5634 13.7481C32.7547 13.7481 32.9025 13.8701 32.9025 14.0232C32.9025 14.1585 32.8438 14.2494 32.6195 14.4683L31.9556 15.1036V15.2855H33.2135V15.0594H32.3404V15.0534L32.8006 14.619C33.0694 14.3607 33.1842 14.2112 33.1842 14.0099C33.1842 13.736 32.9229 13.5269 32.5724 13.5269C32.2066 13.5269 31.9404 13.7541 31.9404 14.0651Z" fill="black"/>
<path fill-rule="evenodd" clip-rule="evenodd" d="M31.9259 22.0999L26.882 19.3276C26.8608 19.3159 26.8454 19.2968 26.8391 19.2745C26.8328 19.2522 26.8362 19.2284 26.8485 19.2084L26.8488 19.2079C26.8549 19.1979 26.8631 19.1892 26.8728 19.1823C26.8825 19.1753 26.8936 19.1702 26.9054 19.1673C26.9172 19.1643 26.9295 19.1636 26.9417 19.1652C26.9538 19.1668 26.9654 19.1706 26.976 19.1764L32.0195 21.9485C32.0407 21.9602 32.056 21.9793 32.0623 22.0015C32.0686 22.0238 32.0653 22.0475 32.053 22.0675L32.0527 22.0682C32.0466 22.0781 32.0384 22.0868 32.0287 22.0938C32.019 22.1007 32.008 22.1058 31.9962 22.1087C31.9844 22.1117 31.9721 22.1124 31.96 22.1108C31.9479 22.1093 31.9362 22.1055 31.9257 22.0997L31.9259 22.0999Z" fill="black"/>
<path fill-rule="evenodd" clip-rule="evenodd" d="M31.9257 21.9483L39.4702 17.9334C39.4916 17.9219 39.5169 17.9189 39.5407 17.925C39.5644 17.931 39.5846 17.9456 39.597 17.9656L39.5974 17.9663C39.6035 17.9762 39.6074 17.9872 39.609 17.9985C39.6106 18.0099 39.6097 18.0215 39.6065 18.0325C39.6033 18.0436 39.5978 18.054 39.5903 18.063C39.5828 18.0721 39.5735 18.0796 39.5629 18.0853L32.0184 22.1003C31.997 22.1117 31.9716 22.1147 31.9479 22.1086C31.9241 22.1025 31.9039 22.0879 31.8916 22.0679L31.8912 22.0672C31.8851 22.0573 31.8811 22.0463 31.8796 22.0349C31.878 22.0235 31.8788 22.012 31.882 22.0009C31.8852 21.9899 31.8908 21.9795 31.8983 21.9704C31.9057 21.9614 31.9151 21.954 31.9257 21.9483Z" fill="black"/>
<path d="M31.973 22.4613C32.2304 22.4613 32.4391 22.2654 32.4391 22.0238C32.4391 21.7821 32.2304 21.5862 31.973 21.5862C31.7156 21.5862 31.5069 21.7821 31.5069 22.0238C31.5069 22.2654 31.7156 22.4613 31.973 22.4613Z" fill="black"/>
<path d="M31.973 22.2863C32.1274 22.2863 32.2526 22.1688 32.2526 22.0238C32.2526 21.8788 32.1274 21.7612 31.973 21.7612C31.8185 21.7612 31.6933 21.8788 31.6933 22.0238C31.6933 22.1688 31.8185 22.2863 31.973 22.2863Z" fill="#FFCC51"/>
<path d="M32.066 20.6236C32.066 20.5753 32.0243 20.5361 31.9728 20.5361C31.9213 20.5361 31.8796 20.5753 31.8796 20.6236V30.0747C31.8796 30.1231 31.9213 30.1622 31.9728 30.1622C32.0243 30.1622 32.066 30.1231 32.066 30.0747V20.6236Z" fill="#FFCC51"/>
</svg>
