<svg width="30" height="30" viewBox="0 0 30 30" fill="none" xmlns="http://www.w3.org/2000/svg">
<path d="M20.1562 5.625V7.03125H11.25C10.6284 7.03125 10.0323 7.27818 9.59272 7.71772C9.15318 8.15726 8.90625 8.7534 8.90625 9.375V22.0312H7.5C7.12704 22.0312 6.76935 21.8831 6.50563 21.6194C6.24191 21.3556 6.09375 20.998 6.09375 20.625V5.625C6.09375 5.25204 6.24191 4.89435 6.50563 4.63063C6.76935 4.36691 7.12704 4.21875 7.5 4.21875H18.75C19.123 4.21875 19.4806 4.36691 19.7444 4.63063C20.0081 4.89435 20.1562 5.25204 20.1562 5.625Z" fill="#E6E6E6"/>
<path d="M22.5 7.96875H11.25C10.877 7.96875 10.5194 8.11691 10.2556 8.38063C9.99191 8.64435 9.84375 9.00204 9.84375 9.375V24.375C9.84375 24.748 9.99191 25.1056 10.2556 25.3694C10.5194 25.6331 10.877 25.7812 11.25 25.7812H22.5C22.873 25.7812 23.2306 25.6331 23.4944 25.3694C23.7581 25.1056 23.9062 24.748 23.9062 24.375V9.375C23.9062 9.00204 23.7581 8.64435 23.4944 8.38063C23.2306 8.11691 22.873 7.96875 22.5 7.96875ZM16.875 20.1562H13.125C13.0007 20.1562 12.8815 20.1069 12.7935 20.019C12.7056 19.931 12.6562 19.8118 12.6562 19.6875C12.6562 19.5632 12.7056 19.444 12.7935 19.356C12.8815 19.2681 13.0007 19.2188 13.125 19.2188H16.875C16.9993 19.2188 17.1185 19.2681 17.2065 19.356C17.2944 19.444 17.3438 19.5632 17.3438 19.6875C17.3438 19.8118 17.2944 19.931 17.2065 20.019C17.1185 20.1069 16.9993 20.1562 16.875 20.1562ZM20.625 16.4062H13.125C13.0007 16.4062 12.8815 16.3569 12.7935 16.269C12.7056 16.181 12.6562 16.0618 12.6562 15.9375C12.6562 15.8132 12.7056 15.694 12.7935 15.606C12.8815 15.5181 13.0007 15.4688 13.125 15.4688H20.625C20.7493 15.4688 20.8685 15.5181 20.9565 15.606C21.0444 15.694 21.0938 15.8132 21.0938 15.9375C21.0938 16.0618 21.0444 16.181 20.9565 16.269C20.8685 16.3569 20.7493 16.4062 20.625 16.4062ZM20.625 12.6562H13.125C13.0007 12.6562 12.8815 12.6069 12.7935 12.519C12.7056 12.431 12.6562 12.3118 12.6562 12.1875C12.6562 12.0632 12.7056 11.944 12.7935 11.856C12.8815 11.7681 13.0007 11.7188 13.125 11.7188H20.625C20.7493 11.7188 20.8685 11.7681 20.9565 11.856C21.0444 11.944 21.0938 12.0632 21.0938 12.1875C21.0938 12.3118 21.0444 12.431 20.9565 12.519C20.8685 12.6069 20.7493 12.6562 20.625 12.6562Z" fill="#E6E6E6"/>
</svg>
