<svg width="40" height="40" viewBox="0 0 40 40" fill="none" xmlns="http://www.w3.org/2000/svg">
<g clip-path="url(#clip0_39_187)">
<path d="M17.525 1.44999C17.075 0.800039 16.2875 0.487539 15.525 0.674989C6.75003 2.83748 0.625 10.675 0.625 19.7375C0.625 30.5625 9.43749 39.375 20.2625 39.375C29.325 39.375 37.1625 33.25 39.325 24.475C39.5125 23.7125 39.2 22.925 38.55 22.475C37.9125 22.0375 37.05 22.05 36.4125 22.5C34.1 24.1375 31.3875 25.0125 28.5625 25.0125C21.075 25.0125 14.9875 18.925 14.9875 11.4375C14.9875 8.61254 15.8625 5.89999 17.5 3.58753C17.95 2.95001 17.9625 2.0875 17.525 1.44999Z" fill="#1E1E1E"/>
</g>
<defs>
<clipPath id="clip0_39_187">
<rect width="40" height="40" fill="white"/>
</clipPath>
</defs>
</svg>
