<svg width="30" height="30" viewBox="0 0 30 30" fill="none" xmlns="http://www.w3.org/2000/svg">
<g clip-path="url(#clip0_50_357)">
<path d="M14.9981 0C6.71626 0 8.65589e-06 6.7425 8.65589e-06 15.06C-0.00337501 18.2166 0.985348 21.2945 2.82644 23.8587C4.66754 26.4228 7.26789 28.3435 10.26 29.3494C11.01 29.4881 11.2838 29.0231 11.2838 28.6237C11.2838 28.2656 11.2706 27.3187 11.2631 26.0625C7.09126 26.9719 6.21001 24.0431 6.21001 24.0431C5.52938 22.3031 4.54501 21.84 4.54501 21.84C3.18188 20.9062 4.64626 20.925 4.64626 20.925C6.15188 21.0319 6.94313 22.4775 6.94313 22.4775C8.28188 24.7781 10.455 24.1144 11.31 23.7281C11.445 22.755 11.8331 22.0912 12.2625 21.7144C8.93251 21.3337 5.43001 20.0419 5.43001 14.2725C5.43001 12.6281 6.01501 11.2837 6.97501 10.23C6.81938 9.84937 6.30563 8.3175 7.12126 6.24562C7.12126 6.24562 8.38126 5.84062 11.2463 7.78875C12.4702 7.45427 13.7331 7.28403 15.0019 7.2825C16.2707 7.28502 17.5336 7.45588 18.7575 7.79063C21.6206 5.8425 22.8788 6.2475 22.8788 6.2475C23.6963 8.32125 23.1825 9.85125 23.0288 10.2319C23.9906 11.2856 24.57 12.63 24.57 14.2744C24.57 20.0587 21.0638 21.3319 17.7225 21.705C18.2606 22.17 18.7406 23.0887 18.7406 24.4931C18.7406 26.5069 18.7219 28.1306 18.7219 28.6237C18.7219 29.0269 18.9919 29.4956 19.7531 29.3475C22.7423 28.3393 25.3395 26.4178 27.178 23.8543C29.0165 21.2908 30.0036 18.2147 30 15.06C30 6.7425 23.2838 0 14.9981 0Z" fill="#AAAAAA"/>
</g>
<defs>
<clipPath id="clip0_50_357">
<rect width="30" height="30" fill="white"/>
</clipPath>
</defs>
</svg>
